<svg xmlns="http://www.w3.org/2000/svg" xmlns:xlink="http://www.w3.org/1999/xlink" width="529" zoomAndPan="magnify" viewBox="0 0 396.75 43.499998" height="58" preserveAspectRatio="xMidYMid meet" version="1.2"><g id="0b29026d4f"><path style=" stroke:none;fill-rule:evenodd;fill:#000000;fill-opacity:1;" d="M 52.5625 3.960938 C 47.65625 5.320312 44.175781 8.15625 41.894531 12.648438 C 40.195312 16.003906 39.910156 17.292969 39.925781 21.613281 C 39.9375 25.988281 40.210938 27.144531 41.960938 30.300781 C 45.667969 36.988281 53.683594 40.683594 60.863281 39.015625 C 67.105469 37.566406 72.089844 33.417969 73.550781 28.457031 C 73.976562 27.007812 73.851562 26.960938 69.375 26.960938 C 65.128906 26.960938 64.605469 27.121094 62.78125 28.957031 C 59.175781 32.585938 52.078125 31.355469 49.898438 26.726562 C 47.679688 22.019531 48.84375 15.976562 52.523438 13.058594 C 55.652344 10.582031 62.246094 11.699219 64.003906 15.003906 C 64.601562 16.128906 65.390625 16.324219 69.304688 16.324219 C 71.832031 16.324219 73.902344 16.046875 73.902344 15.703125 C 73.902344 12.71875 68.890625 6.695312 64.988281 4.984375 C 61.222656 3.332031 56.300781 2.925781 52.5625 3.960938 M 91.394531 3.613281 C 83.261719 5.742188 77.203125 13.296875 77.203125 21.3125 C 77.203125 30.875 85.859375 39.59375 95.351562 39.59375 C 104.847656 39.59375 113.503906 30.875 113.503906 21.3125 C 113.503906 14.933594 109.09375 7.859375 103.386719 5.082031 C 100.269531 3.5625 94.347656 2.839844 91.394531 3.613281 M 181.273438 3.960938 C 176.371094 5.320312 172.890625 8.15625 170.609375 12.648438 C 168.90625 16.003906 168.621094 17.292969 168.636719 21.613281 C 168.652344 25.988281 168.921875 27.144531 170.671875 30.300781 C 174.382812 36.988281 182.394531 40.683594 189.574219 39.015625 C 195.820312 37.566406 200.800781 33.417969 202.261719 28.457031 C 202.6875 27.007812 202.5625 26.960938 198.085938 26.960938 C 193.839844 26.960938 193.316406 27.121094 191.492188 28.957031 C 187.890625 32.585938 180.792969 31.355469 178.609375 26.726562 C 176.394531 22.019531 177.554688 15.976562 181.238281 13.058594 C 184.363281 10.582031 190.960938 11.699219 192.714844 15.003906 C 193.3125 16.128906 194.101562 16.324219 198.015625 16.324219 C 200.542969 16.324219 202.613281 16.046875 202.613281 15.703125 C 202.613281 12.71875 197.605469 6.695312 193.703125 4.984375 C 189.933594 3.332031 185.015625 2.925781 181.273438 3.960938 M 226.453125 4.472656 C 222.585938 6.402344 220.691406 10.355469 221.746094 14.296875 C 222.132812 15.746094 222.730469 17.109375 223.074219 17.324219 C 223.417969 17.535156 222.402344 18.96875 220.8125 20.507812 C 214.136719 26.972656 216.085938 36.054688 224.761719 38.941406 C 228.261719 40.105469 235.304688 39.457031 238.820312 37.648438 L 241.695312 36.167969 L 243.15625 37.546875 C 244.382812 38.710938 245.441406 38.925781 249.851562 38.90625 L 255.089844 38.882812 L 250.796875 34.949219 L 246.507812 31.015625 L 248.996094 26.164062 C 250.367188 23.496094 251.480469 21.085938 251.472656 20.8125 C 251.464844 20.539062 249.59375 20.3125 247.316406 20.3125 C 243.253906 20.3125 243.15625 20.359375 241.917969 22.671875 L 240.65625 25.027344 L 235.472656 19.847656 C 232.621094 16.996094 230.117188 13.988281 229.910156 13.160156 C 229.148438 10.152344 232.871094 8.328125 234.296875 11.007812 C 234.882812 12.109375 235.679688 12.335938 238.941406 12.335938 C 242.667969 12.335938 242.878906 12.25 242.878906 10.726562 C 242.878906 8.632812 239.890625 5.089844 237.152344 3.9375 C 234.003906 2.613281 229.757812 2.824219 226.453125 4.472656 M 279.625 3.960938 C 274.71875 5.320312 271.238281 8.15625 268.957031 12.648438 C 267.253906 16.003906 266.972656 17.292969 266.984375 21.613281 C 267 25.988281 267.273438 27.144531 269.023438 30.300781 C 272.730469 36.988281 280.746094 40.683594 287.925781 39.015625 C 294.167969 37.566406 299.148438 33.417969 300.609375 28.457031 C 301.039062 27.007812 300.914062 26.960938 296.4375 26.960938 C 292.191406 26.960938 291.664062 27.121094 289.84375 28.957031 C 286.238281 32.585938 279.140625 31.355469 276.960938 26.726562 C 274.742188 22.019531 275.90625 15.976562 279.585938 13.058594 C 282.714844 10.582031 289.308594 11.699219 291.066406 15.003906 C 291.664062 16.128906 292.453125 16.324219 296.367188 16.324219 C 298.894531 16.324219 300.960938 16.046875 300.960938 15.703125 C 300.960938 12.71875 295.953125 6.695312 292.050781 4.984375 C 288.28125 3.332031 283.363281 2.925781 279.625 3.960938 M 341.558594 3.613281 C 333.425781 5.742188 327.367188 13.296875 327.367188 21.3125 C 327.367188 30.875 336.023438 39.59375 345.515625 39.59375 C 355.011719 39.59375 363.667969 30.875 363.667969 21.3125 C 363.667969 14.933594 359.257812 7.859375 353.550781 5.082031 C 350.433594 3.5625 344.511719 2.839844 341.558594 3.613281 M 26.816406 4.136719 C 26.574219 4.382812 26.375 12.308594 26.375 21.753906 L 26.375 38.929688 L 35.617188 38.929688 L 35.617188 3.695312 L 31.4375 3.695312 C 29.136719 3.695312 27.058594 3.894531 26.816406 4.136719 M 117.90625 4.136719 C 117.664062 4.382812 117.464844 12.308594 117.464844 21.753906 L 117.464844 38.929688 L 126.671875 38.929688 L 126.855469 28.847656 L 127.035156 18.765625 L 140.238281 38.898438 L 144.691406 38.914062 L 149.148438 38.929688 L 149.148438 3.695312 L 140.566406 3.695312 L 140.558594 14.496094 L 140.546875 25.300781 L 126.375 3.699219 L 122.359375 3.699219 C 120.152344 3.695312 118.148438 3.894531 117.90625 4.136719 M 155.527344 4.136719 C 155.285156 4.382812 155.089844 12.308594 155.089844 21.753906 L 155.089844 38.929688 L 164.328125 38.929688 L 164.328125 3.695312 L 160.148438 3.695312 C 157.851562 3.695312 155.769531 3.894531 155.527344 4.136719 M 306.023438 4.136719 C 305.78125 4.382812 305.582031 12.308594 305.582031 21.753906 L 305.582031 38.929688 L 326.046875 38.929688 L 326.046875 32.28125 L 314.824219 32.28125 L 314.824219 3.695312 L 310.644531 3.695312 C 308.34375 3.695312 306.265625 3.894531 306.023438 4.136719 M 90.148438 13.058594 C 87.671875 15.019531 86.441406 17.761719 86.441406 21.3125 C 86.441406 27.335938 89.785156 30.949219 95.351562 30.949219 C 100.921875 30.949219 104.265625 27.335938 104.265625 21.3125 C 104.265625 15.285156 100.921875 11.671875 95.351562 11.671875 C 92.851562 11.671875 91.417969 12.054688 90.148438 13.058594 M 340.3125 13.058594 C 337.835938 15.019531 336.605469 17.761719 336.605469 21.3125 C 336.605469 27.335938 339.949219 30.949219 345.515625 30.949219 C 351.085938 30.949219 354.429688 27.335938 354.429688 21.3125 C 354.429688 15.285156 351.085938 11.671875 345.515625 11.671875 C 343.015625 11.671875 341.582031 12.054688 340.3125 13.058594 M 226.886719 24.800781 C 225.082031 26.871094 224.9375 28.625 226.410156 30.515625 C 227.519531 31.933594 228.335938 32.277344 230.550781 32.257812 C 232.066406 32.242188 233.996094 31.847656 234.84375 31.375 C 236.375 30.519531 236.367188 30.5 232.644531 27.078125 C 230.589844 25.1875 228.683594 23.636719 228.40625 23.636719 C 228.128906 23.636719 227.445312 24.160156 226.886719 24.800781 "/></g></svg>