<?xml version="1.0" encoding="utf-8"?>
<svg width="41" height="41" viewBox="0 0 40 40" fill="none" xmlns="http://www.w3.org/2000/svg">
  <path d="M40.0036 23.9305H39.9964V1.19566C39.9964 0.681088 39.579 0.263672 39.0644 0.263672H0.93199C0.417416 0.263672 0 0.681088 0 1.19566V39.3317C0 39.8463 0.417416 40.2637 0.93199 40.2637H39.068C39.5826 40.2637 40 39.8463 40 39.3317V24.0204C40 23.9916 40.0072 23.9628 40.0072 23.9341L40.0036 23.9305ZM1.86038 23.8729L4.65275 18.4968L7.53868 24.0672L1.86398 35.4634V23.8729H1.86038ZM12.3498 18.576L15.3401 24.3443C15.5308 24.7113 15.9482 24.8984 16.3512 24.8013C16.6175 24.7365 16.8298 24.5566 16.9449 24.3227L19.9712 18.4968L23.0011 24.3443C23.1918 24.7113 23.6092 24.8984 24.0122 24.8013C24.2785 24.7365 24.4908 24.5566 24.606 24.3227L27.5819 18.5904L37.4271 38.3997H2.47571L12.3498 18.576ZM13.3393 16.5861L19.964 3.28274L26.5815 16.6005L23.7891 21.9837L20.7629 16.1363C20.6081 15.8376 20.3023 15.6505 19.9676 15.6505C19.633 15.6505 19.3235 15.8376 19.1724 16.1363L16.1353 21.9837L13.3393 16.5897V16.5861ZM32.3822 24.0816L35.2825 18.4968L38.136 24.0096V35.6577L32.3822 24.0816ZM38.136 20.1053L36.0813 16.1327C35.9266 15.834 35.6207 15.6469 35.2861 15.6469C34.9514 15.6469 34.6456 15.834 34.4908 16.1327L31.4538 21.9801L28.6974 16.6581L21.4754 2.12405H38.1432V20.1053H38.136ZM18.4635 2.12405L10.896 17.3166L8.47427 21.9801L5.448 16.1327C5.29327 15.834 4.98741 15.6469 4.65275 15.6469C4.3181 15.6469 4.01223 15.834 3.8575 16.1327L1.86398 19.9758V2.12405H18.4671H18.4635Z" fill="#1F1F1F"/>
</svg>