<svg xmlns="http://www.w3.org/2000/svg" width="92" height="140" class="b-corp-logo" viewBox="0 0 100 153.4"><g fill="#4A4A4A" fill-rule="evenodd"><path d="M6.435 73.045c-.104 23.213 18.725 41.19 40.513 41.823 24.002.7 44.314-19.094 43.054-43.842-.564-11.103-4.898-20.565-12.944-28.179-8.663-8.198-19.064-11.97-31.017-11.472-20.768.866-39.67 18.373-39.606 41.671m90.009.076c-.131 28.44-23.493 48.503-48.7 48.124-27.86-.419-48.821-23.411-47.701-50.164 1.112-26.556 23.155-46.869 49.31-46.178 27.913.738 47.337 23.64 47.091 48.22m-48.199 74.05 47.144.001c.941 0 .94 0 .94.943v4.386c0 .847 0 .85-.869.85H1.109c-.926 0-.925 0-.925-.905 0-1.569.012-3.139-.009-4.708-.005-.413.11-.607.542-.568.212.019.429.002.644.002h46.884v-.001ZM16.749 6.233c-1.171 0-2.282.019-3.391-.022-.153-.004-.367-.273-.435-.461-.548-1.516-1.67-2.327-3.208-2.515-1.783-.218-3.288.44-4.136 2.021-1.294 2.413-1.38 4.943-.07 7.401.777 1.459 2.073 2.173 3.747 2.173 1.564 0 2.727-.662 3.415-2.08.186-.382.34-.794.416-1.208.074-.388.21-.559.623-.548.837.024 1.676.021 2.513.002.493-.011.619.185.569.669-.332 3.167-2.664 5.664-5.817 6.192-2.924.491-5.564-.082-7.712-2.209-1.436-1.423-2.155-3.221-2.354-5.23-.243-2.436.058-4.771 1.427-6.852C4.094.895 6.688-.125 9.797.012c2.052.09 3.855.783 5.265 2.327.982 1.074 1.506 2.355 1.688 3.894m76.346 5.263c-.15-.775-.23-1.48-.427-2.15-.293-.998-.968-1.705-2.008-1.864-1.187-.18-2.306.052-2.933 1.227-.897 1.68-.886 3.43-.079 5.125.484 1.016 1.37 1.578 2.546 1.534 1.118-.04 1.936-.609 2.338-1.624.286-.723.388-1.519.563-2.247m-.148 4.788c-1.863 2.337-5.765 1.918-7.362.317-1.078-1.08-1.629-2.394-1.86-3.866-.335-2.138-.034-4.147 1.268-5.936 1.715-2.356 5.395-2.661 7.355-.768.086.084.211.125.422.246.03-.296.072-.513.073-.731.004-1.484.016-2.968-.008-4.452-.007-.482.171-.653.639-.642a43.55 43.55 0 0 0 2.257-.018c.42-.013.627.101.625.577-.011 5.334-.009 10.667-.001 16.001 0 .45-.18.614-.618.599a26.037 26.037 0 0 0-1.936 0c-.528.022-.833-.125-.757-.727.019-.153-.049-.318-.097-.6m-68.795-6.194c.707 0 1.415-.016 2.122.005.556.018.693-.232.524-.715-.395-1.121-.893-2.06-2.896-1.928-1.098.072-2.156.959-2.352 2.025-.077.422.048.615.479.614.708-.004 1.415-.002 2.123 0M26 12.256c-1.289 0-2.578.006-3.868-.004-.469-.004-.696.08-.605.664.193 1.241.822 2.072 2.042 2.358 1.282.3 2.458.033 3.303-1.037.327-.414.654-.542 1.14-.513.513.031 1.03 0 1.545.009.595.011.669.155.437.707-.88 2.098-2.455 3.244-4.712 3.442-1.682.148-3.297-.035-4.736-1.023-1.542-1.06-2.293-2.603-2.496-4.39-.302-2.667.377-5.011 2.707-6.599 2.697-1.838 7.168-1.473 8.906 2.101.572 1.176.823 2.431.799 3.742-.007.41-.18.557-.596.55-1.289-.019-2.578-.006-3.866-.007m50.339-2.166c.689 0 1.376.005 2.063-.001.651-.007.795-.169.575-.774-.391-1.077-.859-1.977-2.893-1.864-1.096.061-2.011.825-2.33 1.97-.147.53.066.67.524.67h2.062m1.807 2.165c-1.269 0-2.537-.007-3.805.002-.673.004-.732.131-.613.768.23 1.229.892 2.04 2.137 2.272 1.32.246 2.458-.085 3.336-1.177.158-.197.47-.351.724-.373.598-.054 1.203-.022 1.805-.016.625.005.678.103.458.668-.913 2.335-2.708 3.387-5.124 3.518-1.484.078-2.907-.134-4.19-.965-1.486-.96-2.284-2.374-2.57-4.063-.337-1.988-.128-3.919 1.137-5.58 1.582-2.075 3.734-2.783 6.267-2.398 3.704.564 5.085 4.184 4.925 6.908-.023.387-.231.443-.555.44-1.311-.011-2.622-.004-3.932-.004m-18.732 5.35c-1.653 0-1.653 0-1.653-1.667 0-2.602-.015-5.204.013-7.804.006-.554-.18-.691-.701-.687-1.37.016-1.37-.006-1.37-1.353 0-.98 0-.98 1.011-.979.15 0 .302-.011.451.002.44.039.596-.142.61-.594.02-.594.053-1.213.235-1.77.444-1.357 1.465-2.099 2.857-2.25.806-.088 1.63-.006 2.445-.016.394-.005.543.171.5.552-.019.17.003.343-.004.515-.022.468.106 1.058-.13 1.364-.175.227-.827.085-1.268.109-.87.046-1.52 1.025-1.162 1.801.066.142.331.254.516.273.406.034.815.037 1.223.009.383-.022.567.128.556.515-.002.041 0 .085.002.128.055 1.681.055 1.705-1.604 1.692-.615-.004-.752.223-.745.798.026 2.795.011 5.59.011 8.385 0 .976.001.976-.955.977h-.838m-16.226-6.077c0-1.162-.018-2.323.011-3.483.011-.459-.153-.588-.594-.595-1.485-.024-1.484-.04-1.476-1.51.005-.797.03-.823.844-.825 1.378-.004 1.207.119 1.214-1.198.005-.645.02-1.291-.006-1.934-.016-.406.098-.594.537-.581.773.021 1.547.021 2.321 0 .438-.01.618.15.603.603-.026.795.015 1.592-.015 2.387-.021.523.161.76.701.729.427-.026.858 0 1.289-.007.367-.008.565.143.559.531-.041 2.205.337 1.767-1.631 1.81-.911.021-.911.007-.91.934 0 1.59-.005 3.182.004 4.773.001.298.037.6.092.893.137.74.416.963 1.179.979 1.266.026 1.266.026 1.266 1.271 0 1.387 0 1.446-1.382 1.454a14.293 14.293 0 0 1-2.87-.302c-1.033-.21-1.719-1.279-1.733-2.51-.014-1.139-.004-2.279-.003-3.419M10.21 131.665c-.258 0-.53.05-.77-.016-.224-.062-.513-.2-.603-.388-.449-.935-1.108-1.592-2.168-1.709-1.293-.143-2.41.205-3.052 1.431-.919 1.751-.953 3.551.022 5.281.654 1.161 1.771 1.629 3.072 1.421 1.234-.197 1.91-1.039 2.211-2.233.044-.181.314-.414.499-.432.576-.057 1.159-.016 1.74-.027.384-.007.491.187.428.53-.378 2.095-1.721 3.954-4.214 4.353-2.17.347-4.099-.115-5.609-1.813-1.198-1.346-1.577-2.975-1.517-4.723.078-2.287.925-4.22 2.974-5.378 2.566-1.449 6.065-.856 7.541 1.49.334.531.503 1.174.695 1.782.029.096-.203.373-.351.408-.285.065-.597.018-.899.018v.005h.001Zm26.556 3.812c-.106-.596-.138-1.098-.291-1.56-.252-.758-.748-1.293-1.6-1.395-.856-.101-1.563.176-1.944.953-.57 1.158-.598 2.38-.031 3.541.308.634.853 1.047 1.642 1.058.815.011 1.451-.28 1.775-1.024.227-.518.318-1.096.45-1.573m-4.186 3.383c0 1.179-.026 2.207.011 3.233.021.593-.173.827-.778.745a4.61 4.61 0 0 0-1.095.002c-.479.052-.588-.169-.586-.596.008-3.613.011-7.226 0-10.839-.003-.458.167-.628.613-.565.168.025.343 0 .515.007.59.024 1.36-.261 1.248 1.047.877-1.02 1.803-1.281 2.86-1.252 1.761.051 3.209 1.305 3.581 3.039.306 1.43.292 2.795-.321 4.15-.903 1.995-3.46 2.745-5.274 1.521-.208-.14-.422-.27-.774-.493M35.492 6.984c.675-1.107 1.641-1.798 2.891-2.083.125-.028.25-.062.377-.076 1.167-.121 1.305.005 1.305 1.175 0 .493-.024.989.007 1.481.029.458-.159.592-.599.597-.658.007-1.359-.041-1.965.164-1.677.563-2.05 2.006-2.093 3.555a113.891 113.891 0 0 0 0 5.028c.011.584-.175.822-.775.79a25.546 25.546 0 0 0-2.126-.004c-.427.013-.562-.17-.561-.576.008-3.781.008-7.562.001-11.343 0-.387.094-.602.545-.585.751.03 1.504.026 2.254.001.407-.013.534.167.525.538-.011.434-.003.868-.003 1.304l.217.033m27.701 129.064c-.035-.053-.205-.436-.299-.418-.896.17-1.825.3-2.654.656-.738.318-.625 1.464.101 1.824 1.39.693 2.806-.229 2.852-2.062Zm2.438 3.639c-.776-.225-1.818.503-2.562-.646-.906.797-2.01.917-3.17.869-1.532-.064-2.628-1.061-2.634-2.586-.004-1.37.66-2.297 2.335-2.602.758-.138 1.529-.219 2.293-.332.801-.118 1.302-.522 1.282-1.029-.025-.668-.55-1.06-1.42-1.086-.774-.022-1.39.179-1.693.986-.058.156-.313.318-.488.333-.534.043-1.073.024-1.609.011-.38-.008-.439-.188-.35-.556.258-1.059.905-1.737 1.915-2.063 1.556-.501 3.123-.508 4.661.064.997.371 1.45 1.146 1.442 2.207-.008 1.182-.002 2.363-.002 3.546v2.884Zm-22.917-4.438.061.02c.033.362.05.726.104 1.085.125.822.817 1.563 1.558 1.693.981.171 1.748-.167 2.197-1.038.486-.938.459-1.933.219-2.938-.209-.872-.88-1.48-1.738-1.557-1.003-.09-1.669.267-2.031 1.195-.191.486-.252 1.024-.37 1.54m2.186 4.658c-2.689.144-4.607-1.754-4.576-4.629.031-2.882 1.741-4.631 4.592-4.628 2.766.003 4.533 1.792 4.568 4.545.037 2.882-1.882 4.84-4.584 4.71m-27.589-1.834c.744.006 1.346-.337 1.693-1.118.459-1.032.449-2.091.105-3.128-.282-.844-.909-1.318-1.849-1.324-.926-.006-1.574.409-1.894 1.259-.399 1.061-.395 2.132.077 3.188.347.779.947 1.126 1.868 1.123m-.14 1.834c-2.715.097-4.557-1.76-4.546-4.622.011-2.759 1.657-4.686 4.677-4.637 2.933.05 4.534 1.915 4.516 4.674-.017 2.875-1.781 4.664-4.647 4.585m62.478-4.743c.092.536.146.982.249 1.416.194.822.84 1.408 1.586 1.48 1.047.103 1.711-.209 2.111-1.087.493-1.082.469-2.203.044-3.304-.316-.819-.959-1.154-1.818-1.16-.843-.006-1.471.363-1.793 1.117-.212.5-.268 1.067-.379 1.538m2.105 4.743c-2.493.12-4.618-1.716-4.503-4.842.095-2.59 1.755-4.489 4.747-4.423 2.676.059 4.395 1.875 4.408 4.709.014 2.788-1.962 4.745-4.652 4.556m8.597-8.227c.675-.33 1.289-.775 1.967-.921.667-.142 1.42-.08 2.098.069.816.181 1.41.753 1.587 1.608.146.712.257 1.44.278 2.165.042 1.481 0 2.966.021 4.45.005.467-.14.679-.628.644a9.448 9.448 0 0 0-1.225-.001c-.453.025-.608-.176-.603-.612.014-1.375.015-2.753 0-4.128a5.096 5.096 0 0 0-.136-1.148c-.225-.913-.697-1.254-1.616-1.228-.799.023-1.405.54-1.563 1.36a4.548 4.548 0 0 0-.065.832c-.007 1.42-.015 2.839.004 4.258.007.465-.157.672-.632.665-2.188-.034-1.834.276-1.851-1.763-.017-2.107.01-4.215-.013-6.324-.006-.587.194-.848.791-.76.105.016.215.003.322.003 1.02.002 1.02.002 1.264.831M65.617 11.329c0-1.804.019-3.605-.011-5.409-.009-.593.132-.873.788-.816.639.055 1.289.046 1.929.001.601-.041.787.192.784.775-.018 3.478-.009 6.954-.009 10.432 0 1.294 0 1.293-1.28 1.293-.515 0-1.033-.025-1.546.008-.519.033-.668-.192-.663-.682.019-1.867.008-3.734.008-5.602m-14.767.004c0-1.827.017-3.654-.008-5.48-.009-.564.187-.773.748-.746.686.034 1.376.027 2.062.003.49-.018.695.155.693.667-.013 3.74-.011 7.479 0 11.218 0 .449-.189.619-.618.613a62.785 62.785 0 0 0-2.255.002c-.48.011-.631-.209-.628-.669.015-1.869.006-3.738.006-5.608m17.234 124.125c0-.775-.022-1.55.008-2.321.018-.476-.141-.653-.625-.639-.731.022-1.187-.825-.756-1.438.115-.165.491-.209.743-.202.471.013.668-.14.638-.63a8.562 8.562 0 0 1 .013-1.544c.02-.17.287-.313.444-.465.011-.011.043-.002.063-.002 2.32.041 1.868-.349 1.912 1.803.016.812.014.811.828.833.304.008.825.021.866.154.125.391.092.846.045 1.267-.011.095-.326.225-.502.224-1.476-.003-1.22.008-1.233 1.268-.011.987-.007 1.977 0 2.966.007.889.236 1.151 1.113 1.085.579-.045.688.167.679.68-.027 1.518.088 1.297-1.328 1.293-.491 0-.98-.055-1.458-.164-.983-.23-1.431-.825-1.447-1.848-.013-.774-.003-1.547-.003-2.321m-42.401-3.356c.596-.773 1.271-1.296 2.196-1.424.878-.12 1.026-.009 1.025.867v.129c0 1.178 0 1.178-1.138 1.236-1.238.062-2.129 1.113-2.16 2.594a80.7 80.7 0 0 0 .003 3.479c.011.522-.154.716-.699.715-1.754-.001-1.754.018-1.754-1.701 0-2.148.016-4.296-.01-6.443-.007-.556.146-.811.727-.711.146.025.301.005.45.004 1.021 0 1.02 0 1.19.998.01.055.066.103.17.257m27.739.002c.228-.207.372-.348.527-.474.299-.242.572-.551.914-.695.561-.237 1.346-.61 1.726-.091.314.427.14 1.224.127 1.856-.001.077-.356.23-.526.206-1.625-.229-2.775 1.006-2.71 2.727.043 1.138-.007 2.28.016 3.418.009.464-.136.678-.625.643-.429-.024-.86-.026-1.29-.004-.387.014-.54-.165-.539-.541.006-2.579.006-5.158.001-7.738 0-.391.121-.624.562-.568.127.016.258.004.386.004 1.201.003 1.201.003 1.431 1.257m20.126 3.163c0-1.267.012-2.533-.007-3.8-.006-.457.123-.677.625-.63.428.033.858.033 1.285 0 .398-.025.544.15.544.524-.002 2.598-.002 5.195.003 7.792 0 .375-.156.521-.54.542-1.91.105-1.91.114-1.91-1.789v-2.639M52.571 3.244c-1.717.002-1.717.002-1.721-1.717 0-.171.014-.346-.004-.515-.04-.384.12-.557.508-.554.816.008 1.631.007 2.447 0 .364-.002.559.123.544.528-.022.58-.022 1.159 0 1.739.014.41-.19.528-.551.521-.407-.007-.815-.002-1.223-.002m14.729.002c-1.682 0-1.682 0-1.682-1.683 0-.15.015-.303-.003-.449-.066-.512.157-.685.657-.664.728.031 1.458.022 2.186.004.454-.011.678.133.646.628-.031.512-.031 1.03 0 1.542.031.494-.194.649-.646.627-.386-.019-.772-.005-1.158-.005m7.322 124.258c1.457.029 1.372-.311 1.377 1.519.002.346-.104.525-.473.515-.515-.011-1.03-.002-1.546-.003-.065 0-.152.017-.189-.019-.517-.467-.155-1.072-.212-1.611-.012-.115.293-.325.485-.385.215-.068.468-.016.559-.016m25.044-.409H100v1.664h-.333v-.891l-.54.891h-.18l-.498-.891v.891h-.318l-.054-1.664h.372l.59 1.123.628-1.123Zm-2.738 1.63v-1.351h-.693v-.215h1.653a2.57 2.57 0 0 0 0 .215h-.644v1.351h-.316Z" style="fill:#000"/><path d="M44.539 51.831v-.036c-2.772 0-5.544.019-8.316-.013-.655-.008-.835.195-.833.844.025 5.224.014 10.447.014 15.671 0 .884.014.9.899.9 4.384.001 8.768.002 13.151 0 2.129 0 4.253-.073 6.313-.678 2.192-.643 4.071-1.724 5.1-3.893 1.03-2.169 1.04-4.432.592-6.737-.464-2.395-1.779-4.171-4.051-5.015-1.447-.537-3.02-.91-4.556-.998-2.762-.158-5.542-.045-8.313-.045m1.043 42.506c2.6 0 5.2-.022 7.8.009 1.451.016 2.865-.124 4.253-.571 2.121-.684 3.839-1.897 4.98-3.827 1.316-2.226 1.675-4.634 1.271-7.185-.372-2.363-1.486-4.215-3.534-5.481-2.208-1.365-4.665-1.832-7.201-1.852-5.651-.044-11.304-.007-16.955-.023-.625-.003-.806.209-.804.825.02 5.762.022 11.522-.002 17.284-.003.664.202.839.843.833 3.116-.028 6.232-.011 9.349-.011M60.99 71.414c1.018.358 1.917.629 2.78.986 3.361 1.39 5.716 3.781 6.789 7.268 1.896 6.157.712 11.687-3.773 16.363-2.115 2.209-4.807 3.529-7.821 4.04a31.323 31.323 0 0 1-5.052.433c-8.322.043-16.643.02-24.964.019-.934 0-.934 0-.934-.907V46.385c0-.879 0-.878.886-.878 6.214 0 12.428-.03 18.643.014 2.832.02 5.669.103 8.494.32 2.261.174 4.529.519 6.539 1.713 2.86 1.697 4.898 4.091 5.84 7.306 1.212 4.132.844 8.101-1.518 11.78-1.337 2.084-3.26 3.496-5.483 4.527-.11.052-.209.121-.426.247" style="fill:#000"/></g></svg>
