<svg xmlns="http://www.w3.org/2000/svg" id="layer" width="600" height="251.1" viewBox="0 0 600 251.1" style="enable-background:new 0 0 652 652" version="1.1"><style>.st0{fill:#0062a1}.st1{fill:#218fcf}.st2{fill:#fff}</style><path d="M0 125.6C0 56.3 56.2 0 125.5 0s125.6 56.2 125.6 125.6c0 69.3-56.2 125.5-125.6 125.5C56.2 251.2 0 194.9 0 125.6" class="st0" style="fill:#000"/><path d="M101.9 223.3V71.6l-18.3-.2.2-24.5 23.6-21.1h43.5v197.5zM212.8 91.6H223l-43.9 60.2h-10.2zM163.1 106c0 7.8 6.3 14.1 14.1 14.1s14.1-6.3 14.1-14.1-6.3-14.1-14.1-14.1c-7.7 0-14.1 6.4-14.1 14.1m7.9 0c0-3.4 2.8-6.2 6.2-6.2 3.4 0 6.2 2.8 6.2 6.2 0 3.4-2.8 6.2-6.2 6.2-3.4.1-6.2-2.7-6.2-6.2M200 137.7c0 7.8 6.3 14.1 14.1 14.1s14.1-6.3 14.1-14.1-6.3-14.1-14.1-14.1c-7.8-.1-14.1 6.3-14.1 14.1m7.8 0c0-3.4 2.8-6.2 6.2-6.2 3.4 0 6.2 2.8 6.2 6.2 0 3.4-2.8 6.2-6.2 6.2-3.4 0-6.2-2.8-6.2-6.2" class="st2"/><path d="M274.9 67.4h41.3V80h-27v8.7h24.5v11.9h-24.5v18.5h-14.3zM321.3 93.4v-.1c0-14.9 12-26.9 27.9-26.9 16 0 27.8 11.9 27.8 26.8v.2c0 14.9-12 26.9-27.9 26.9-15.9-.1-27.8-12-27.8-26.9m41.1 0v-.1c0-7.5-5.4-14-13.3-14-7.8 0-13.1 6.4-13.1 13.8v.2c0 7.5 5.4 14 13.2 14 8-.1 13.2-6.4 13.2-13.9M384.9 67.4h24.5c7.9 0 13.4 2.1 16.8 5.6 3 3 4.6 6.9 4.6 12v.2c0 7.9-4.2 13.2-10.6 15.9l12.3 18h-16.6l-10.4-15.7H399.3v15.7H385V67.4h-.1Zm23.8 24.8c4.9 0 7.7-2.4 7.7-6.1V86c0-4.1-3-6.1-7.8-6.1h-9.4v12.4h9.5v-.1ZM464.9 80h-15.5V67.4h45.3V80h-15.5v39.1h-14.3zM501.4 67.4h14.3v19.3h18.4V67.4h14.4v51.7h-14.4V99.5h-18.4v19.6h-14.3zM558 67.4h41.6v12.2h-27.4v7.8H597v11.3h-24.8v8.2H600v12.2h-42z" class="st1" style="fill:#000"/><path d="M274.5 129.4h23.8c14 0 23 7.2 23 19.5v.2c0 13.1-10.1 20-23.8 20h-7.6v15.8h-15.4v-55.5Zm22.6 27.6c5.5 0 8.8-2.8 8.8-7.2v-.2c0-4.8-3.3-7.3-8.9-7.3h-7.2v14.6h7.3v.1ZM327.8 129.4h15.3v42H370v13.5h-42.2zM395.7 129h14.8l23.6 55.8h-16.5l-4-9.9h-21.4l-4 9.9H372l23.7-55.8Zm13.5 34-6.2-15.8-6.3 15.8h12.5ZM439.5 129.4h14.3l22.8 29.3v-29.3h15.2v55.5h-13.4l-23.7-30.5v30.5h-15.2zM501.6 129.4h44.6v13.1h-29.3v8.4h26.6V163h-26.6v8.8h29.7v13.1h-45zM568 142.9h-16.6v-13.5H600v13.5h-16.6v42H568zM586.8 180c0-2.7 2.1-4.9 4.8-4.9 2.7 0 4.8 2.2 4.8 4.8 0 2.6-2.1 4.9-4.8 4.9-2.6 0-4.8-2.2-4.8-4.8m8.9 0c0-2.3-1.7-4.1-4-4.1s-4 1.9-4 4.1c0 2.2 1.7 4.1 4 4.1 2.3-.1 4-1.9 4-4.1m-6-2.5h2.3c1.2 0 2 .5 2 1.6 0 .8-.4 1.3-1 1.5l1.2 1.7h-1.6l-1-1.4h-.6v1.4h-1.3v-4.8Zm2.2 2.3c.5 0 .7-.2.7-.6 0-.4-.3-.6-.7-.6h-.9v1.2h.9Z" class="st0" style="fill:#000"/></svg>
