<svg xmlns="http://www.w3.org/2000/svg" xmlns:xlink="http://www.w3.org/1999/xlink" width="500" zoomAndPan="magnify" viewBox="0 0 375 374.999991" height="500" preserveAspectRatio="xMidYMid meet" version="1.2"><defs/><g id="081257cced"><g style="fill:#ffffff;fill-opacity:1;"><g transform="translate(99.339843, 203.925015)"><path style="stroke:none" d="M 6.140625 0 L 2.03125 0 L 2.03125 -19.90625 L 6.140625 -19.90625 Z M 6.140625 0 "/></g></g><g style="fill:#ffffff;fill-opacity:1;"><g transform="translate(107.500819, 203.925015)"><path style="stroke:none" d="M 17.40625 -6.625 C 17.25 -4.488281 16.457031 -2.800781 15.03125 -1.5625 C 13.601562 -0.332031 11.722656 0.28125 9.390625 0.28125 C 6.835938 0.28125 4.828125 -0.578125 3.359375 -2.296875 C 1.898438 -4.015625 1.171875 -6.375 1.171875 -9.375 L 1.171875 -10.59375 C 1.171875 -12.507812 1.507812 -14.195312 2.1875 -15.65625 C 2.863281 -17.113281 3.828125 -18.234375 5.078125 -19.015625 C 6.328125 -19.796875 7.785156 -20.1875 9.453125 -20.1875 C 11.742188 -20.1875 13.59375 -19.566406 15 -18.328125 C 16.40625 -17.097656 17.21875 -15.375 17.4375 -13.15625 L 13.328125 -13.15625 C 13.234375 -14.4375 12.875 -15.363281 12.25 -15.9375 C 11.632812 -16.519531 10.703125 -16.8125 9.453125 -16.8125 C 8.078125 -16.8125 7.050781 -16.320312 6.375 -15.34375 C 5.695312 -14.363281 5.347656 -12.84375 5.328125 -10.78125 L 5.328125 -9.28125 C 5.328125 -7.132812 5.648438 -5.5625 6.296875 -4.5625 C 6.953125 -3.570312 7.984375 -3.078125 9.390625 -3.078125 C 10.660156 -3.078125 11.609375 -3.363281 12.234375 -3.9375 C 12.859375 -4.519531 13.210938 -5.414062 13.296875 -6.625 Z M 17.40625 -6.625 "/></g></g><g style="fill:#ffffff;fill-opacity:1;"><g transform="translate(125.818574, 203.925015)"><path style="stroke:none" d="M 18.125 -9.5 C 18.125 -7.539062 17.773438 -5.820312 17.078125 -4.34375 C 16.390625 -2.875 15.398438 -1.734375 14.109375 -0.921875 C 12.828125 -0.117188 11.351562 0.28125 9.6875 0.28125 C 8.03125 0.28125 6.554688 -0.113281 5.265625 -0.90625 C 3.972656 -1.707031 2.96875 -2.84375 2.25 -4.3125 C 1.539062 -5.78125 1.179688 -7.472656 1.171875 -9.390625 L 1.171875 -10.375 C 1.171875 -12.332031 1.523438 -14.054688 2.234375 -15.546875 C 2.941406 -17.035156 3.941406 -18.179688 5.234375 -18.984375 C 6.523438 -19.785156 8 -20.1875 9.65625 -20.1875 C 11.3125 -20.1875 12.785156 -19.785156 14.078125 -18.984375 C 15.367188 -18.179688 16.363281 -17.035156 17.0625 -15.546875 C 17.769531 -14.054688 18.125 -12.335938 18.125 -10.390625 Z M 13.96875 -10.40625 C 13.96875 -12.488281 13.59375 -14.070312 12.84375 -15.15625 C 12.101562 -16.25 11.039062 -16.796875 9.65625 -16.796875 C 8.28125 -16.796875 7.21875 -16.257812 6.46875 -15.1875 C 5.71875 -14.113281 5.335938 -12.539062 5.328125 -10.46875 L 5.328125 -9.5 C 5.328125 -7.46875 5.703125 -5.890625 6.453125 -4.765625 C 7.203125 -3.648438 8.28125 -3.09375 9.6875 -3.09375 C 11.0625 -3.09375 12.113281 -3.628906 12.84375 -4.703125 C 13.582031 -5.785156 13.957031 -7.363281 13.96875 -9.4375 Z M 13.96875 -10.40625 "/></g></g><g style="fill:#ffffff;fill-opacity:1;"><g transform="translate(145.147908, 203.925015)"><path style="stroke:none" d="M 17.96875 0 L 13.859375 0 L 5.875 -13.09375 L 5.875 0 L 1.78125 0 L 1.78125 -19.90625 L 5.875 -19.90625 L 13.875 -6.78125 L 13.875 -19.90625 L 17.96875 -19.90625 Z M 17.96875 0 "/></g></g><g style="fill:#ffffff;fill-opacity:1;"><g transform="translate(164.91468, 203.925015)"><path style="stroke:none" d="M 6.140625 0 L 2.03125 0 L 2.03125 -19.90625 L 6.140625 -19.90625 Z M 6.140625 0 "/></g></g><g style="fill:#ffffff;fill-opacity:1;"><g transform="translate(173.075656, 203.925015)"><path style="stroke:none" d="M 17.40625 -6.625 C 17.25 -4.488281 16.457031 -2.800781 15.03125 -1.5625 C 13.601562 -0.332031 11.722656 0.28125 9.390625 0.28125 C 6.835938 0.28125 4.828125 -0.578125 3.359375 -2.296875 C 1.898438 -4.015625 1.171875 -6.375 1.171875 -9.375 L 1.171875 -10.59375 C 1.171875 -12.507812 1.507812 -14.195312 2.1875 -15.65625 C 2.863281 -17.113281 3.828125 -18.234375 5.078125 -19.015625 C 6.328125 -19.796875 7.785156 -20.1875 9.453125 -20.1875 C 11.742188 -20.1875 13.59375 -19.566406 15 -18.328125 C 16.40625 -17.097656 17.21875 -15.375 17.4375 -13.15625 L 13.328125 -13.15625 C 13.234375 -14.4375 12.875 -15.363281 12.25 -15.9375 C 11.632812 -16.519531 10.703125 -16.8125 9.453125 -16.8125 C 8.078125 -16.8125 7.050781 -16.320312 6.375 -15.34375 C 5.695312 -14.363281 5.347656 -12.84375 5.328125 -10.78125 L 5.328125 -9.28125 C 5.328125 -7.132812 5.648438 -5.5625 6.296875 -4.5625 C 6.953125 -3.570312 7.984375 -3.078125 9.390625 -3.078125 C 10.660156 -3.078125 11.609375 -3.363281 12.234375 -3.9375 C 12.859375 -4.519531 13.210938 -5.414062 13.296875 -6.625 Z M 17.40625 -6.625 "/></g></g><g style="fill:#ffffff;fill-opacity:1;"><g transform="translate(191.393412, 203.925015)"><path style="stroke:none" d=""/></g></g><g style="fill:#ffffff;fill-opacity:1;"><g transform="translate(198.365095, 203.925015)"><path style="stroke:none" d="M 0.96875 -5.359375 C 0.96875 -6.273438 1.222656 -7.125 1.734375 -7.90625 C 2.253906 -8.695312 3.203125 -9.570312 4.578125 -10.53125 C 3.984375 -11.320312 3.519531 -12.066406 3.1875 -12.765625 C 2.851562 -13.460938 2.6875 -14.1875 2.6875 -14.9375 C 2.6875 -16.488281 3.175781 -17.75 4.15625 -18.71875 C 5.132812 -19.695312 6.453125 -20.1875 8.109375 -20.1875 C 9.597656 -20.1875 10.816406 -19.742188 11.765625 -18.859375 C 12.710938 -17.972656 13.1875 -16.867188 13.1875 -15.546875 C 13.1875 -13.960938 12.382812 -12.5625 10.78125 -11.34375 L 9.25 -10.234375 L 12.6875 -6.25 C 13.226562 -7.300781 13.5 -8.46875 13.5 -9.75 L 16.859375 -9.75 C 16.859375 -7.15625 16.257812 -5.054688 15.0625 -3.453125 L 18.046875 0 L 13.5625 0 L 12.53125 -1.171875 C 11.070312 -0.203125 9.390625 0.28125 7.484375 0.28125 C 5.515625 0.28125 3.9375 -0.234375 2.75 -1.265625 C 1.5625 -2.304688 0.96875 -3.671875 0.96875 -5.359375 Z M 7.671875 -2.90625 C 8.617188 -2.90625 9.515625 -3.164062 10.359375 -3.6875 L 6.4375 -8.234375 L 6.15625 -8.03125 C 5.34375 -7.332031 4.9375 -6.515625 4.9375 -5.578125 C 4.9375 -4.785156 5.1875 -4.140625 5.6875 -3.640625 C 6.195312 -3.148438 6.859375 -2.90625 7.671875 -2.90625 Z M 6.21875 -15 C 6.21875 -14.3125 6.617188 -13.453125 7.421875 -12.421875 L 8.484375 -13.109375 C 9.015625 -13.453125 9.382812 -13.785156 9.59375 -14.109375 C 9.800781 -14.441406 9.90625 -14.835938 9.90625 -15.296875 C 9.90625 -15.753906 9.734375 -16.148438 9.390625 -16.484375 C 9.054688 -16.828125 8.625 -17 8.09375 -17 C 7.53125 -17 7.078125 -16.816406 6.734375 -16.453125 C 6.390625 -16.085938 6.21875 -15.601562 6.21875 -15 Z M 6.21875 -15 "/></g></g><g style="fill:#ffffff;fill-opacity:1;"><g transform="translate(216.73753, 203.925015)"><path style="stroke:none" d=""/></g></g><g style="fill:#ffffff;fill-opacity:1;"><g transform="translate(223.709213, 203.925015)"><path style="stroke:none" d="M 17.40625 -6.625 C 17.25 -4.488281 16.457031 -2.800781 15.03125 -1.5625 C 13.601562 -0.332031 11.722656 0.28125 9.390625 0.28125 C 6.835938 0.28125 4.828125 -0.578125 3.359375 -2.296875 C 1.898438 -4.015625 1.171875 -6.375 1.171875 -9.375 L 1.171875 -10.59375 C 1.171875 -12.507812 1.507812 -14.195312 2.1875 -15.65625 C 2.863281 -17.113281 3.828125 -18.234375 5.078125 -19.015625 C 6.328125 -19.796875 7.785156 -20.1875 9.453125 -20.1875 C 11.742188 -20.1875 13.59375 -19.566406 15 -18.328125 C 16.40625 -17.097656 17.21875 -15.375 17.4375 -13.15625 L 13.328125 -13.15625 C 13.234375 -14.4375 12.875 -15.363281 12.25 -15.9375 C 11.632812 -16.519531 10.703125 -16.8125 9.453125 -16.8125 C 8.078125 -16.8125 7.050781 -16.320312 6.375 -15.34375 C 5.695312 -14.363281 5.347656 -12.84375 5.328125 -10.78125 L 5.328125 -9.28125 C 5.328125 -7.132812 5.648438 -5.5625 6.296875 -4.5625 C 6.953125 -3.570312 7.984375 -3.078125 9.390625 -3.078125 C 10.660156 -3.078125 11.609375 -3.363281 12.234375 -3.9375 C 12.859375 -4.519531 13.210938 -5.414062 13.296875 -6.625 Z M 17.40625 -6.625 "/></g></g><g style="fill:#ffffff;fill-opacity:1;"><g transform="translate(242.026969, 203.925015)"><path style="stroke:none" d="M 5.875 -3.296875 L 14.59375 -3.296875 L 14.59375 0 L 1.78125 0 L 1.78125 -19.90625 L 5.875 -19.90625 Z M 5.875 -3.296875 "/></g></g><g style="fill:#ffffff;fill-opacity:1;"><g transform="translate(256.312044, 203.925015)"><path style="stroke:none" d="M 18.125 -9.5 C 18.125 -7.539062 17.773438 -5.820312 17.078125 -4.34375 C 16.390625 -2.875 15.398438 -1.734375 14.109375 -0.921875 C 12.828125 -0.117188 11.351562 0.28125 9.6875 0.28125 C 8.03125 0.28125 6.554688 -0.113281 5.265625 -0.90625 C 3.972656 -1.707031 2.96875 -2.84375 2.25 -4.3125 C 1.539062 -5.78125 1.179688 -7.472656 1.171875 -9.390625 L 1.171875 -10.375 C 1.171875 -12.332031 1.523438 -14.054688 2.234375 -15.546875 C 2.941406 -17.035156 3.941406 -18.179688 5.234375 -18.984375 C 6.523438 -19.785156 8 -20.1875 9.65625 -20.1875 C 11.3125 -20.1875 12.785156 -19.785156 14.078125 -18.984375 C 15.367188 -18.179688 16.363281 -17.035156 17.0625 -15.546875 C 17.769531 -14.054688 18.125 -12.335938 18.125 -10.390625 Z M 13.96875 -10.40625 C 13.96875 -12.488281 13.59375 -14.070312 12.84375 -15.15625 C 12.101562 -16.25 11.039062 -16.796875 9.65625 -16.796875 C 8.28125 -16.796875 7.21875 -16.257812 6.46875 -15.1875 C 5.71875 -14.113281 5.335938 -12.539062 5.328125 -10.46875 L 5.328125 -9.5 C 5.328125 -7.46875 5.703125 -5.890625 6.453125 -4.765625 C 7.203125 -3.648438 8.28125 -3.09375 9.6875 -3.09375 C 11.0625 -3.09375 12.113281 -3.628906 12.84375 -4.703125 C 13.582031 -5.785156 13.957031 -7.363281 13.96875 -9.4375 Z M 13.96875 -10.40625 "/></g></g></g></svg>